<?xml version="1.0" standalone="no"?>
<!DOCTYPE svg PUBLIC "-//W3C//DTD SVG 20010904//EN"
 "http://www.w3.org/TR/2001/REC-SVG-20010904/DTD/svg10.dtd">
<svg version="1.0" xmlns="http://www.w3.org/2000/svg"
 width="603.000000pt" height="253.000000pt" viewBox="0 0 603.000000 253.000000"
 preserveAspectRatio="xMidYMid meet">

<g transform="translate(0.000000,253.000000) scale(0.100000,-0.100000)"
fill="#000000" stroke="none">
<path d="M2958 2358 c-9 -7 -18 -26 -20 -42 l-3 -29 115 1 c63 1 116 4 118 7
1 3 2 17 1 33 0 26 -1 26 -9 5 -9 -21 -15 -23 -99 -23 -65 0 -90 4 -94 13 -11
28 10 36 98 40 l90 3 -91 2 c-60 1 -96 -2 -106 -10z"/>
<path d="M2486 2352 c-3 -5 8 -6 25 -4 l29 4 2 -201 c1 -110 2 -211 2 -223 1
-16 -6 -24 -21 -26 l-23 -3 -3 213 -2 213 -3 -214 c-2 -208 -3 -213 -22 -208
-19 5 -20 4 -3 -24 14 -24 24 -29 55 -29 20 0 40 5 43 10 3 6 48 10 100 10 52
0 97 -4 100 -10 3 -5 21 -10 40 -10 27 0 37 6 52 30 25 43 50 48 82 16 l26
-26 3 -252 c2 -139 8 -258 13 -264 20 -24 -22 -175 -83 -297 l-39 -78 37 -62
c21 -34 67 -91 103 -126 l64 -64 71 74 c39 41 84 98 99 127 l29 53 -46 90
c-52 103 -57 101 -20 -10 l25 -77 -28 -47 c-15 -25 -31 -47 -35 -47 -13 0 -10
278 3 282 7 2 7 12 -1 32 -7 19 -10 119 -9 287 2 196 -1 262 -11 274 -12 15
-10 53 5 88 4 10 -7 3 -27 -15 l-34 -33 22 -25 c26 -31 36 -58 24 -65 -5 -3
-5 -16 2 -30 16 -35 3 -42 -35 -21 l-32 18 34 -29 c29 -25 34 -36 36 -81 3
-60 -7 -72 -38 -45 -12 10 -7 1 11 -20 33 -38 37 -65 11 -59 -10 3 -9 -1 3
-15 11 -13 16 -40 17 -91 l1 -73 -44 44 c-24 25 -57 52 -74 61 -28 15 -30 19
-30 76 0 55 2 60 22 61 21 0 21 1 -2 11 -29 15 -27 54 3 50 19 -2 18 -1 -2 14
-28 20 -31 54 -5 54 10 0 28 -7 40 -16 12 -8 22 -13 22 -10 0 3 -18 18 -40 32
-45 30 -57 70 -17 61 l22 -6 -22 16 c-13 9 -23 26 -23 39 0 26 10 29 43 13 19
-9 18 -7 -3 10 -14 11 -29 21 -33 21 -5 0 -7 10 -5 23 2 16 9 21 25 20 l23 -3
-21 21 c-30 30 -12 43 73 47 62 4 70 2 65 -12 -9 -23 10 -20 23 4 18 33 58 26
77 -15 15 -31 21 -35 54 -35 21 0 39 4 41 9 5 14 187 16 201 2 32 -32 108 6
106 54 -1 17 -2 17 -6 3 -2 -10 -11 -18 -19 -18 -11 0 -14 36 -17 198 l-2 197
-3 -197 c-2 -191 -3 -198 -22 -198 -19 0 -20 7 -20 226 l0 226 25 -4 c14 -3
25 -1 25 3 0 12 -57 11 -65 -1 -3 -6 -50 -10 -106 -10 -59 0 -99 4 -99 10 0 6
-3 10 -7 10 -5 0 -7 -103 -5 -230 l3 -230 -26 0 -25 0 -2 218 -2 217 -6 -215
c-6 -256 -22 -269 -31 -25 l-5 160 -2 -153 -2 -153 -189 3 -189 3 -9 -25 c-7
-19 -18 -26 -40 -28 l-31 -2 -7 195 c-4 108 -5 211 -2 230 5 33 -5 47 -18 25
-3 -6 -48 -10 -100 -10 -52 0 -97 4 -100 10 -7 12 -62 13 -69 2z m274 -237 l0
-215 -95 0 -95 0 0 215 0 215 95 0 95 0 0 -215z m788 3 l-3 -213 -97 -3 -98
-3 0 216 0 215 101 0 100 0 -3 -212z m-488 -885 l0 -87 -31 30 c-28 27 -30 32
-23 79 8 61 10 65 35 65 17 0 19 -8 19 -87z m52 30 c31 -47 38 -142 13 -163
-13 -11 -19 -11 -32 3 -16 15 -15 18 4 39 34 39 38 55 5 24 l-32 -30 0 82 c0
45 4 82 9 82 4 0 19 -17 33 -37z m-64 -160 c-16 -16 -19 -16 -38 2 -13 12 -20
31 -20 54 l0 36 37 -38 c35 -35 36 -38 21 -54z m-70 -154 l-3 -72 -32 52 c-18
29 -33 60 -33 68 0 9 15 48 33 87 l32 71 3 -67 c2 -37 2 -100 0 -139z m32 126
c0 -8 -4 -17 -10 -20 -6 -4 -10 5 -10 20 0 15 4 24 10 20 6 -3 10 -12 10 -20z
m79 11 c9 -10 8 -16 -4 -26 -13 -11 -15 -8 -15 14 0 30 3 32 19 12z m-29 -17
c0 -11 -4 -17 -10 -14 -5 3 -10 13 -10 21 0 8 5 14 10 14 6 0 10 -9 10 -21z
m78 -14 c-2 -45 -23 -65 -45 -42 -14 13 -14 19 -3 32 7 9 20 13 28 10 9 -3 12
0 9 9 -5 12 0 26 9 26 2 0 3 -16 2 -35z m-88 -11 c11 -12 10 -18 -3 -32 -16
-15 -18 -15 -34 0 -13 14 -14 20 -3 32 7 9 16 16 20 16 4 0 13 -7 20 -16z m39
-48 c9 -10 8 -16 -4 -26 -13 -11 -15 -8 -15 14 0 30 3 32 19 12z m-79 -10 c0
-8 -4 -18 -10 -21 -5 -3 -10 3 -10 14 0 12 5 21 10 21 6 0 10 -6 10 -14z m47
-20 c-3 -29 -45 -96 -61 -96 -3 0 -6 15 -6 33 0 37 31 74 51 61 8 -4 10 -3 5
4 -4 7 -4 17 -1 22 11 18 16 10 12 -24z m79 7 c-10 -10 -19 5 -10 18 6 11 8
11 12 0 2 -7 1 -15 -2 -18z m-8 -15 c7 -7 12 -30 12 -52 0 -39 0 -39 -21 -20
-33 29 -42 53 -28 70 14 17 21 18 37 2z m-68 -125 l0 -78 -25 30 c-39 47 -40
63 -9 96 15 16 29 29 31 29 2 0 3 -35 3 -77z m49 46 c26 -33 23 -44 -19 -99
l-20 -25 0 78 c0 42 3 77 8 76 4 0 18 -14 31 -30z"/>
<path d="M2621 2293 c-1 -6 2 -19 5 -28 5 -13 8 -14 15 -3 6 9 9 7 9 -9 0 -12
-4 -25 -10 -28 -5 -3 -10 -12 -9 -18 0 -9 2 -9 6 1 9 22 19 13 21 -19 2 -23
-2 -32 -17 -36 -10 -3 -21 -13 -24 -24 -6 -23 8 -26 17 -3 4 10 15 14 33 12
35 -4 39 -38 6 -53 -17 -7 -21 -15 -16 -37 3 -17 1 -28 -6 -28 -6 0 -11 5 -11
12 0 6 -3 8 -6 5 -4 -4 -1 -14 7 -23 11 -14 11 -18 -4 -29 -9 -7 -16 -23 -16
-36 1 -21 2 -21 6 -4 8 34 23 41 23 11 0 -18 5 -26 12 -24 8 3 12 20 11 42 -1
24 4 39 13 43 8 3 14 10 14 15 0 6 -6 5 -15 -2 -13 -11 -15 -8 -15 13 0 16 8
31 20 37 12 6 20 21 20 36 0 17 -7 28 -20 31 -15 4 -20 14 -20 40 0 25 3 32
13 27 9 -6 9 -5 0 7 -12 15 -13 16 -14 57 0 15 -3 21 -6 15 -2 -7 -11 -13 -18
-13 -7 0 -16 6 -18 13 -4 8 -6 8 -6 0z"/>
<path d="M2685 2277 c-4 -10 -5 -21 -1 -24 10 -10 18 4 13 24 -4 17 -4 17 -12
0z"/>
<path d="M2646 2121 c-9 -15 23 -36 35 -24 8 8 5 14 -9 22 -12 6 -23 7 -26 2z"/>
<path d="M2620 2090 c0 -5 5 -10 11 -10 5 0 7 5 4 10 -3 6 -8 10 -11 10 -2 0
-4 -4 -4 -10z"/>
<path d="M2692 1960 c0 -19 2 -27 5 -17 2 9 2 25 0 35 -3 9 -5 1 -5 -18z"/>
<path d="M3450 2293 c0 -7 -7 -13 -15 -13 -8 0 -15 -8 -14 -17 0 -11 3 -13 6
-5 2 6 9 12 14 12 14 0 6 -33 -11 -48 -13 -10 -13 -11 3 -6 14 5 17 0 17 -30
0 -29 -4 -36 -20 -36 -17 0 -20 -7 -20 -41 0 -22 4 -38 8 -35 5 3 7 19 4 36
-3 19 0 30 7 30 7 0 11 -8 9 -17 -2 -10 2 -17 9 -16 6 1 14 -4 17 -12 3 -9 0
-15 -8 -15 -8 0 -11 -10 -8 -30 3 -18 0 -30 -7 -30 -6 0 -11 5 -11 12 0 6 -3
8 -6 5 -4 -4 -1 -14 7 -23 11 -13 11 -18 2 -21 -7 -3 -13 -12 -12 -21 0 -11 2
-12 6 -4 8 19 25 14 21 -8 -2 -10 1 -18 7 -17 5 1 8 10 7 20 -2 9 1 17 7 17 5
0 12 -12 14 -27 4 -26 4 -26 6 5 1 22 -3 32 -14 32 -8 0 -15 5 -15 10 0 6 5
10 10 10 6 0 10 5 10 11 0 5 -4 7 -10 4 -6 -3 -10 5 -10 19 0 15 8 30 20 36
28 15 28 70 0 70 -18 0 -20 6 -18 60 2 57 10 75 21 48 3 -7 6 1 6 17 1 23 -2
27 -9 15 -9 -13 -11 -13 -20 0 -6 10 -10 11 -10 3z m38 -181 c2 -12 -1 -22 -7
-22 -6 0 -11 7 -11 15 0 8 -4 15 -10 15 -5 0 -10 5 -10 11 0 20 35 4 38 -19z"/>
<path d="M2820 2349 c0 -5 5 -7 10 -4 6 3 10 8 10 11 0 2 -4 4 -10 4 -5 0 -10
-5 -10 -11z"/>
<path d="M3280 2349 c0 -5 5 -7 10 -4 6 3 10 8 10 11 0 2 -4 4 -10 4 -5 0 -10
-5 -10 -11z"/>
<path d="M2454 2130 c0 -113 2 -159 3 -102 2 56 2 148 0 205 -1 56 -3 10 -3
-103z"/>
<path d="M2824 2125 c0 -115 2 -161 3 -102 2 59 2 154 0 210 -1 56 -3 8 -3
-108z"/>
<path d="M2860 2160 c0 -95 2 -171 5 -169 7 7 8 330 1 336 -3 4 -6 -72 -6
-167z"/>
<path d="M3242 2305 c0 -16 2 -22 5 -12 2 9 2 23 0 30 -3 6 -5 -1 -5 -18z"/>
<path d="M3654 2185 c0 -82 2 -115 3 -72 2 43 2 110 0 150 -1 40 -3 5 -3 -78z"/>
<path d="M2962 2153 l-51 -88 26 -3 c29 -4 42 5 47 35 5 24 28 63 37 63 3 0
11 -11 17 -25 8 -17 20 -25 36 -25 l24 0 -35 65 c-19 36 -38 65 -42 65 -5 0
-31 -39 -59 -87z"/>
<path d="M3072 2220 c-12 -20 -2 -60 16 -60 4 0 16 -13 25 -30 l18 -30 -35 0
c-25 0 -38 -6 -46 -20 -10 -19 -8 -20 71 -20 l81 0 -22 38 c-12 20 -36 61 -52
90 -17 28 -33 52 -37 52 -3 0 -12 -9 -19 -20z"/>
<path d="M2983 2071 c-18 -33 -33 -62 -33 -65 0 -3 48 -6 106 -6 l106 0 -15
23 c-13 19 -22 22 -71 19 -59 -4 -65 1 -41 32 10 13 11 24 4 37 -5 11 -13 19
-17 19 -4 0 -22 -27 -39 -59z"/>
<path d="M672 1657 c-28 -29 -52 -57 -52 -63 0 -6 14 -23 30 -39 l30 -29 -62
-63 -62 -63 62 -63 62 -63 -35 -34 -35 -34 57 -58 57 -58 53 52 c29 29 53 56
53 62 0 5 -13 22 -30 38 -16 15 -30 32 -30 36 0 4 25 32 55 62 30 30 55 59 55
65 0 5 -26 35 -57 67 l-57 58 34 35 34 35 -55 55 -54 55 -53 -53z m67 -46 c12
-8 13 -12 1 -26 -12 -14 -15 -14 -28 -1 -8 8 -11 19 -8 25 9 13 16 14 35 2z
m26 -171 l39 -40 -39 -40 -38 -39 -33 27 c-49 41 -51 58 -13 98 18 19 36 34
39 34 3 0 24 -18 45 -40z m-26 -224 c9 -10 8 -16 -4 -26 -19 -16 -41 1 -32 24
8 20 21 20 36 2z"/>
<path d="M3045 1690 c3 -5 8 -10 11 -10 2 0 4 5 4 10 0 6 -5 10 -11 10 -5 0
-7 -4 -4 -10z"/>
<path d="M3689 1650 l-52 -51 32 -33 c39 -40 36 -49 -33 -114 -25 -24 -46 -47
-46 -51 0 -4 25 -31 55 -61 30 -30 55 -59 55 -64 0 -6 -13 -24 -30 -41 l-30
-31 49 -49 c28 -28 54 -50 59 -50 6 0 33 22 62 49 l51 49 -30 31 c-17 18 -31
36 -31 41 0 5 26 35 57 67 l57 58 -57 58 c-31 32 -57 62 -57 67 0 5 14 24 31
41 l32 33 -53 50 c-29 28 -57 51 -62 51 -4 0 -31 -23 -59 -50z m78 -46 c7 -18
-17 -38 -31 -24 -11 11 -1 40 14 40 6 0 13 -7 17 -16z m28 -164 l39 -40 -44
-41 -44 -40 -40 40 -40 41 39 40 c21 22 42 40 45 40 3 0 24 -18 45 -40z m-28
-226 c9 -23 -13 -40 -32 -24 -12 10 -13 16 -4 26 15 18 28 18 36 -2z"/>
<path d="M1353 1592 c-18 -37 -66 -130 -106 -207 -180 -345 -318 -617 -315
-620 17 -14 48 -23 53 -16 13 22 75 141 203 391 168 327 198 384 209 387 4 2
45 -70 90 -159 45 -90 121 -237 168 -328 48 -91 102 -195 121 -232 33 -65 35
-67 59 -56 14 6 24 17 23 23 -3 10 -142 280 -354 685 -56 107 -106 195 -111
197 -4 1 -23 -28 -40 -65z"/>
<path d="M4316 1468 c-142 -277 -241 -468 -302 -585 -30 -56 -54 -105 -54
-110 0 -4 10 -14 22 -22 18 -11 22 -11 32 5 13 23 252 482 339 651 34 68 66
122 70 120 9 -3 53 -87 281 -532 71 -137 130 -251 131 -253 3 -3 43 15 53 23
2 2 -21 49 -51 106 -30 57 -86 165 -125 239 -38 74 -92 178 -119 230 -28 52
-76 146 -107 208 -32 61 -61 112 -64 112 -4 0 -52 -87 -106 -192z"/>
<path d="M259 1630 c-4 -3 42 -120 105 -260 62 -140 150 -342 197 -447 l84
-193 80 0 81 0 16 43 c9 23 38 89 63 147 52 116 231 526 277 633 16 37 27 71
24 75 -2 4 -38 6 -80 4 -73 -3 -76 -5 -76 -28 0 -21 5 -24 35 -24 19 0 35 -4
35 -9 0 -9 -35 -95 -100 -241 -23 -52 -54 -124 -70 -160 -15 -36 -49 -112 -75
-170 -25 -58 -56 -129 -67 -157 -20 -52 -21 -53 -63 -53 l-42 0 -88 203 c-48
111 -125 286 -170 389 -46 103 -80 189 -77 192 3 4 20 6 39 6 29 0 33 3 33 28
l0 27 -76 0 c-42 0 -80 -2 -85 -5z"/>
<path d="M1974 1631 c-2 -2 -4 -111 -4 -242 l0 -237 -65 -63 c-36 -35 -64 -66
-63 -70 2 -4 31 -37 66 -72 l62 -65 0 -76 0 -76 76 0 75 0 -3 28 c-3 24 -7 27
-45 30 l-43 3 0 47 c0 44 4 51 55 102 56 55 92 64 40 10 l-29 -30 22 -22 22
-22 48 54 49 55 104 6 c57 4 111 10 120 14 12 4 36 -23 100 -116 46 -67 93
-132 104 -145 19 -23 21 -23 43 -6 l23 18 -96 134 c-95 133 -104 150 -85 150
18 0 101 83 120 120 26 52 39 136 30 200 -16 115 -71 188 -180 239 -53 25 -62
26 -298 31 -134 3 -246 3 -248 1z m506 -80 c63 -24 121 -78 145 -133 23 -56
20 -168 -6 -223 -43 -92 -126 -136 -272 -143 l-99 -5 -53 53 c-36 36 -59 51
-69 47 -30 -12 -30 -37 0 -68 19 -19 23 -29 13 -29 -8 0 -36 21 -62 48 l-46
47 -1 200 c0 110 -1 208 0 219 0 18 9 18 198 14 170 -5 205 -8 252 -27z m-445
-497 l37 -36 -38 -39 -38 -39 -38 37 -38 37 37 38 c20 21 38 38 39 38 1 0 19
-16 39 -36z"/>
<path d="M2237 1382 l-68 -69 68 -66 c37 -37 70 -67 73 -67 3 0 34 29 70 65
l64 64 -65 70 c-35 38 -66 69 -69 70 -3 0 -36 -30 -73 -67z m101 -45 l22 -23
-28 -27 -28 -27 -22 23 c-26 28 -27 35 -5 59 21 24 35 23 61 -5z"/>
<path d="M3280 1628 c0 -7 209 -488 245 -563 8 -16 31 -68 51 -115 20 -47 50
-116 67 -153 l30 -68 79 3 79 3 100 230 c54 127 110 253 124 282 14 28 25 54
25 57 0 3 12 31 27 63 61 134 112 257 108 261 -2 2 -38 5 -80 6 l-75 1 0 -27
c0 -25 3 -28 35 -28 19 0 35 -3 35 -8 0 -4 -76 -180 -168 -392 l-169 -385 -42
0 -42 0 -31 70 c-47 109 -108 247 -123 280 -43 92 -185 420 -185 427 0 4 18 8
40 8 36 0 40 3 40 24 0 24 -3 25 -85 28 -47 2 -85 0 -85 -4z"/>
<path d="M4990 1387 l0 -243 -60 -59 c-33 -33 -60 -64 -60 -70 0 -6 27 -37 60
-70 l60 -59 0 -78 0 -78 75 0 75 0 0 30 c0 29 -2 30 -45 30 l-45 0 0 48 c0 44
4 51 53 100 49 48 77 64 77 44 0 -5 -11 -19 -25 -32 -29 -27 -31 -42 -9 -60
13 -11 23 -5 72 42 l57 56 100 5 c55 2 107 7 115 11 12 5 38 -27 105 -125 50
-72 95 -138 102 -147 10 -15 13 -15 32 3 12 10 20 24 17 30 -2 7 -43 66 -91
133 -48 67 -85 126 -83 131 1 5 23 24 48 43 128 97 148 334 37 448 -92 95
-155 110 -444 110 l-223 0 0 -243z m429 183 c113 -15 182 -57 224 -135 28 -52
31 -193 5 -240 -26 -48 -69 -86 -128 -114 -45 -20 -74 -26 -155 -29 l-100 -4
-48 51 c-26 28 -51 51 -54 51 -4 0 -15 -8 -25 -17 -18 -16 -17 -18 14 -50 26
-26 28 -33 14 -33 -10 0 -40 23 -67 50 l-49 50 0 215 0 215 148 0 c81 0 180
-5 221 -10z m-362 -512 c18 -18 33 -37 33 -43 0 -6 -15 -25 -32 -42 -32 -30
-34 -31 -53 -14 -11 9 -29 27 -39 39 -19 22 -19 23 14 57 19 19 36 35 39 35 3
0 20 -14 38 -32z"/>
<path d="M5265 1380 l-70 -70 68 -67 67 -68 70 70 70 70 -68 68 -68 67 -69
-70z m97 -37 c24 -21 23 -35 -5 -61 l-23 -21 -28 25 -27 26 22 24 c27 28 36
30 61 7z"/>
<path d="M3080 1606 c0 -2 8 -10 18 -17 15 -13 16 -12 3 4 -13 16 -21 21 -21
13z"/>
<path d="M4357 1345 c-36 -72 -90 -176 -119 -233 -45 -87 -51 -104 -38 -112 8
-6 21 -9 29 -7 8 1 53 77 100 169 47 92 89 168 93 168 5 0 46 -76 93 -170 47
-93 91 -170 98 -170 6 0 19 5 27 10 13 8 -4 48 -101 242 l-116 233 -66 -130z"/>
<path d="M1353 1388 c-22 -40 -74 -141 -116 -225 -77 -152 -78 -155 -40 -177
7 -4 43 54 104 170 82 158 93 175 105 159 7 -10 48 -87 91 -171 49 -96 84
-154 93 -154 48 1 44 14 -69 236 -62 121 -116 223 -120 227 -5 5 -26 -24 -48
-65z"/>
<path d="M1339 1054 l-53 -54 22 -22 22 -22 36 34 35 35 29 -35 29 -35 22 22
23 22 -45 49 c-24 27 -49 52 -55 55 -6 3 -35 -19 -65 -49z"/>
<path d="M4371 1056 c-47 -47 -52 -56 -42 -75 15 -27 20 -27 59 10 l34 31 32
-31 c32 -31 33 -31 55 -14 l22 18 -48 57 c-26 31 -50 57 -53 57 -3 1 -30 -23
-59 -53z"/>
<path d="M270 406 l0 -206 35 0 c38 0 48 19 15 27 -19 5 -20 14 -20 179 l0
174 91 0 c109 0 150 -16 174 -67 20 -42 15 -96 -12 -125 -32 -35 -70 -48 -143
-48 -72 0 -101 -19 -32 -21 106 -5 161 10 197 52 34 41 36 132 4 173 -37 47
-75 59 -196 64 l-113 5 0 -207z"/>
<path d="M902 453 c2 -126 6 -153 23 -182 31 -52 65 -72 131 -78 74 -6 122 13
161 64 27 36 28 39 31 190 l4 154 -34 -3 c-36 -3 -41 -21 -7 -26 21 -4 22 -6
17 -127 -6 -137 -20 -180 -67 -208 -43 -25 -141 -23 -175 4 -48 38 -56 67 -56
202 0 116 1 125 20 130 33 9 22 27 -16 27 l-36 0 4 -147z"/>
<path d="M1550 395 l0 -205 100 0 c189 0 250 29 250 120 0 36 -6 53 -24 73
-21 23 -22 28 -10 44 21 28 17 96 -6 126 -28 36 -76 47 -202 47 l-108 0 0
-205z m289 146 c25 -29 27 -68 5 -99 -14 -21 -22 -22 -140 -22 l-124 0 0 76 0
76 119 -4 c112 -3 121 -5 140 -27z m16 -176 c27 -26 32 -63 14 -97 -18 -34
-70 -48 -184 -48 l-105 0 0 85 0 85 125 0 c120 0 127 -1 150 -25z"/>
<path d="M2200 395 l0 -205 145 0 145 0 0 30 c0 20 -5 30 -15 30 -8 0 -15 -7
-15 -15 0 -12 -19 -15 -115 -15 l-115 0 0 174 c0 165 1 174 20 179 33 8 23 27
-15 27 l-35 0 0 -205z"/>
<path d="M2790 585 c0 -8 9 -15 20 -15 19 0 20 -7 20 -180 0 -113 4 -180 10
-180 6 0 10 72 10 195 l0 195 -30 0 c-20 0 -30 -5 -30 -15z"/>
<path d="M3242 577 c-31 -33 -32 -84 -3 -108 12 -10 52 -27 89 -40 92 -30 112
-50 112 -112 0 -40 -5 -53 -28 -77 -39 -39 -100 -47 -172 -23 -46 15 -55 22
-56 43 -2 44 -4 46 -21 15 -15 -29 -15 -30 16 -56 36 -30 70 -39 140 -39 112
0 179 94 137 194 -10 24 -28 40 -67 60 -29 14 -59 26 -67 26 -8 0 -29 7 -48
16 -27 13 -34 22 -34 44 0 15 6 33 13 39 40 32 147 18 147 -20 0 -25 16 -24
30 1 15 29 -28 53 -104 58 -55 3 -63 1 -84 -21z"/>
<path d="M5590 591 c-83 -27 -131 -75 -150 -153 -26 -102 27 -200 128 -238 66
-25 114 -23 185 8 l47 21 0 91 0 91 -52 -3 c-67 -4 -79 -28 -14 -28 l46 0 0
-64 c0 -58 -2 -65 -27 -82 -40 -26 -140 -31 -184 -9 -77 39 -109 88 -109 167
0 62 21 103 75 144 73 55 246 39 231 -22 -8 -29 5 -31 28 -5 22 24 16 36 -36
62 -45 23 -129 33 -168 20z"/>
<path d="M3770 390 l0 -200 30 0 c17 0 30 5 30 10 0 6 -9 10 -20 10 -18 0 -20
7 -20 85 l0 85 149 0 c83 0 152 -3 154 -7 2 -5 2 -43 -1 -85 -4 -68 -7 -78
-23 -78 -10 0 -19 -4 -19 -10 0 -5 16 -10 35 -10 l35 0 0 200 0 200 -35 0
c-19 0 -35 -4 -35 -10 0 -5 11 -10 25 -10 26 0 26 0 23 -82 l-3 -83 -90 -3
c-49 -2 -118 0 -152 3 l-63 7 0 79 c0 72 2 79 20 79 11 0 20 5 20 10 0 6 -13
10 -30 10 l-30 0 0 -200z"/>
<path d="M4420 580 c0 -5 9 -10 20 -10 19 0 20 -7 20 -185 0 -158 2 -185 15
-185 13 0 15 28 15 195 l0 195 -35 0 c-19 0 -35 -4 -35 -10z"/>
<path d="M4780 390 l0 -200 35 0 c19 0 35 5 35 10 0 6 -9 10 -20 10 -19 0 -20
7 -20 180 0 137 3 180 13 180 6 0 63 -86 125 -190 l113 -190 39 0 40 0 0 200
0 200 -35 0 c-19 0 -35 -4 -35 -10 0 -5 9 -10 20 -10 19 0 20 -7 20 -181 0
-163 -2 -180 -17 -177 -15 3 -121 166 -201 310 -35 65 -39 68 -74 68 l-38 0 0
-200z"/>
</g>
</svg>
